<?xml version="1.0" encoding="utf-8"?>
<!-- Generator: Adobe Illustrator 22.0.1, SVG Export Plug-In . SVG Version: 6.00 Build 0)  -->
<svg version="1.1" id="Слой_1" xmlns="http://www.w3.org/2000/svg" xmlns:xlink="http://www.w3.org/1999/xlink" x="0px" y="0px"
	 viewBox="0 0 12 12" style="enable-background:new 0 0 12 12;" xml:space="preserve">
		<path d="M1,12c-0.3,0-0.5-0.1-0.7-0.3c-0.4-0.4-0.4-1,0-1.4l10-10c0.4-0.4,1-0.4,1.4,0s0.4,1,0,1.4l-10,10
			C1.5,11.9,1.3,12,1,12z"/>

		<path d="M11,12c-0.3,0-0.5-0.1-0.7-0.3l-10-10c-0.4-0.4-0.4-1,0-1.4s1-0.4,1.4,0l10,10c0.4,0.4,0.4,1,0,1.4
			C11.5,11.9,11.3,12,11,12z"/>
</svg>
