<?xml version="1.0" encoding="utf-8"?>
<svg version="1.1" id="Слой_1" xmlns="http://www.w3.org/2000/svg" xmlns:xlink="http://www.w3.org/1999/xlink" x="0px" y="0px"
	 viewBox="0 0 10 12.4" style="enable-background:new 0 0 10 12.4;" xml:space="preserve">
<path d="M10,5.1c0,0,0-0.1,0-0.1c0-2.8-2.2-5-5-5C2.4,0,0.3,1.9,0.1,4.4c0,0,0,0.1,0,0.1C0,4.7,0,4.8,0,5
	c0,0,0,0.1,0,0.1c0,0,0,0.1,0,0.1c0,4.6,4.5,7.1,4.5,7.1c0.3,0.1,0.7,0.1,0.9,0c0,0,4.5-2.5,4.5-7.1C10,5.2,10,5.1,10,5.1z M5,7.4
	c-1.2,0-2.2-1-2.2-2.2S3.8,3,5,3s2.2,1,2.2,2.2S6.2,7.4,5,7.4z"/>
</svg>
