<svg xmlns="http://www.w3.org/2000/svg" xmlns:xlink="http://www.w3.org/1999/xlink" x="0px" y="0px"
	viewBox="0 0 51 51">
	<g class='normal'>
		<path fill-rule='evenodd' d="M25.5,0.5c-13.8,0-25,11.2-25,25s11.2,25,25,25s25-11.2,25-25S39.3,0.5,25.5,0.5z M25.5,29.2c-0.5,0-0.9-0.4-0.9-0.9V14.9c0-0.5,0.4-0.9,0.9-0.9s0.9,0.4,0.9,0.9v13.4C26.4,28.8,26,29.2,25.5,29.2z M36.2,34.8H14.8c-0.5,0-0.9-0.4-0.9-0.9c0-0.5,0.4-0.9,0.9-0.9h21.5c0.5,0,0.9,0.4,0.9,0.9 C37.1,34.4,36.7,34.8,36.2,34.8z M25.5,29.2c-0.2,0-0.4-0.1-0.6-0.3L21,25.1c-0.3-0.3-0.3-0.9,0-1.2c0.3-0.3,0.9-0.3,1.2,0l3.8,3.8c0.3,0.3,0.3,0.9,0,1.2 C25.9,29.1,25.7,29.2,25.5,29.2z M25.5,29.2c-0.2,0-0.4-0.1-0.6-0.3c-0.3-0.3-0.3-0.9,0-1.2l3.8-3.8c0.3-0.3,0.9-0.3,1.2,0c0.3,0.3,0.3,0.9,0,1.2 l-3.8,3.8C25.9,29.1,25.7,29.2,25.5,29.2z"/>
	</g>
	<!-- <g> -->
	<!-- <path class="st0" d="M25.5,0.5c-13.8,0-25,11.2-25,25s11.2,25,25,25s25-11.2,25-25S39.3,0.5,25.5,0.5z M34.1,26.8l-12.5,7.8c-0.3,0.2-0.5,0.2-0.8,0.2c-0.3,0-0.5-0.1-0.8-0.2c-0.5-0.3-0.8-0.8-0.8-1.4V17.7
		c0-0.6,0.3-1.1,0.8-1.4c0.5-0.3,1.1-0.3,1.6,0l12.5,7.8c0.5,0.3,0.7,0.8,0.7,1.3S34.6,26.5,34.1,26.8z"/>
	</g> -->
	</svg>
