<?xml version="1.0" encoding="utf-8"?>
<!-- Generator: Adobe Illustrator 22.0.0, SVG Export Plug-In . SVG Version: 6.00 Build 0)  -->
<svg version="1.1" id="Capa_1" xmlns="http://www.w3.org/2000/svg" xmlns:xlink="http://www.w3.org/1999/xlink" x="0px" y="0px"
	 viewBox="0 0 51 51" style="enable-background:new 0 0 51 51;" xml:space="preserve">
<style type="text/css">
	.st0{fill:none;stroke:#17FFDB;stroke-miterlimit:10;}
</style>
<g>
	<path class="st0" d="M25.5,0.5c-13.8,0-25,11.2-25,25s11.2,25,25,25s25-11.2,25-25S39.3,0.5,25.5,0.5z"/>
	<path class="st0" d="M34.1,26.8l-12.5,7.8c-0.3,0.2-0.5,0.2-0.8,0.2c-0.3,0-0.5-0.1-0.8-0.2c-0.5-0.3-0.8-0.8-0.8-1.4V17.7
		c0-0.6,0.3-1.1,0.8-1.4c0.5-0.3,1.1-0.3,1.6,0l12.5,7.8c0.5,0.3,0.7,0.8,0.7,1.3S34.6,26.5,34.1,26.8z"/>
</g>
</svg>
